<svg width="171" height="66" viewBox="0 0 171 66" fill="none" xmlns="http://www.w3.org/2000/svg">
<path d="M92.9696 39.6039L94.0797 40.4497C93.3044 42.0003 92.2296 43.3041 90.8552 44.3613C89.5161 45.4185 88.3003 45.9471 87.2079 45.9471C86.1154 45.9471 85.2521 45.63 84.6177 44.9957C83.9834 44.3613 83.6663 43.5684 83.6663 42.617C83.6663 41.6655 84.2653 40.0092 85.4635 37.6481C86.6969 35.2518 87.3136 33.4898 87.3136 32.3621C87.3136 31.8688 87.1022 31.4283 86.6793 31.0406C86.2916 30.6177 85.8159 30.4063 85.2521 30.4063C83.4548 30.4063 81.6399 31.7807 79.8075 34.5294C77.975 37.2429 75.9311 41.1721 73.6757 46.3172L70.5041 45.2071C71.1737 41.1193 72.1251 37.1371 73.3585 33.2607C74.6272 29.3491 75.7901 26.5475 76.8473 24.856L79.0146 25.5432C78.0278 28.0452 76.7768 32.3621 75.2615 38.4939C80.1246 30.1772 84.6001 26.0189 88.688 26.0189C89.569 26.0189 90.2914 26.3184 90.8552 26.9175C91.4543 27.5166 91.7538 28.2214 91.7538 29.0319C91.7538 29.8425 91.6481 30.5825 91.4367 31.2521C91.2252 31.8864 90.5557 33.4017 89.428 35.798C88.3356 38.1591 87.7893 39.6392 87.7893 40.2383C87.7893 40.8373 87.9655 41.3131 88.3179 41.6655C88.6703 41.9826 89.0051 42.1412 89.3223 42.1412C89.6394 42.1412 89.9037 42.0884 90.1152 41.9826C90.3266 41.8769 90.5557 41.7183 90.8024 41.5069C91.0843 41.2955 91.331 41.1016 91.5424 40.9254C91.7538 40.7492 92.0005 40.5202 92.2824 40.2383C92.5996 39.9211 92.8287 39.7097 92.9696 39.6039ZM110.406 30.3006C111.323 31.8159 111.781 33.4898 111.781 35.3223C111.781 38.1767 110.794 40.7316 108.821 42.987C106.847 45.2071 104.521 46.3172 101.843 46.3172C99.7992 46.3172 98.1957 45.7357 97.0328 44.5728C95.9051 43.3746 95.3413 41.736 95.3413 39.6568C95.3413 36.309 96.6452 33.3136 99.2529 30.6706C101.861 27.9923 104.786 26.6532 108.028 26.6532C108.627 26.6532 109.05 26.6708 109.296 26.7061L109.455 28.4505C106.636 28.4505 104.292 29.261 102.425 30.882C100.557 32.5031 99.623 34.5822 99.623 37.1195C99.623 38.6348 99.993 39.8682 100.733 40.8197C101.473 41.736 102.548 42.1941 103.957 42.1941C105.402 42.1941 106.548 41.5598 107.393 40.2911C108.239 39.0225 108.662 37.5424 108.662 35.8509C108.662 34.1241 108.327 32.5559 107.658 31.1463L110.406 30.3006ZM125.21 40.0797L126.373 41.4012C125.492 42.7755 124.417 43.8504 123.149 44.6256C121.915 45.4009 120.664 45.7886 119.395 45.7886C118.127 45.7886 117.123 45.4362 116.382 44.7314C115.642 43.9913 115.272 42.987 115.272 41.7183C115.272 38.7582 116.382 34.6703 118.603 29.4548C116.805 29.7367 115.008 30.1596 113.211 30.7235L112.841 28.6619L112.788 28.609C114.55 27.869 116.858 27.2699 119.713 26.8118C119.995 26.2832 120.629 24.9969 121.616 22.953C123.589 18.9004 124.999 16.275 125.844 15.0769L128.117 15.9755C127.765 16.7508 127.148 18.0547 126.267 19.8871C125.386 21.6844 124.4 23.7283 123.307 26.0189C124.893 25.9132 126.144 25.8603 127.06 25.8603C127.976 25.8603 128.681 26.0013 129.175 26.2832V28.5562C128.681 28.4505 127.959 28.3976 127.007 28.3976C126.091 28.3976 124.435 28.5562 122.039 28.8734C119.959 33.525 118.92 36.9081 118.92 39.0225C118.92 39.833 119.166 40.5026 119.66 41.0312C120.188 41.5598 120.876 41.8241 121.721 41.8241C122.602 41.8241 123.765 41.2426 125.21 40.0797ZM145.09 39.7625L146.305 40.714C145.213 42.2293 143.715 43.498 141.812 44.5199C139.909 45.5066 138.059 46 136.262 46C134.465 46 133.02 45.4714 131.927 44.4142C130.835 43.357 130.289 41.965 130.289 40.2383C130.289 36.9962 131.998 33.807 135.416 30.6706C138.87 27.5342 142.358 25.966 145.883 25.966C148.208 25.966 149.371 26.8823 149.371 28.7148C149.371 30.6177 148.138 32.5383 145.671 34.4765C143.24 36.4147 139.804 38.1767 135.363 39.7625C135.681 40.573 136.174 41.2074 136.843 41.6655C137.513 42.1236 138.2 42.3527 138.905 42.3527C140.42 42.3527 142.482 41.4893 145.09 39.7625ZM135.099 38.1767C137.953 37.19 140.403 35.9566 142.447 34.4765C144.491 32.9964 145.512 31.6397 145.512 30.4063C145.512 29.9482 145.336 29.5429 144.984 29.1905C144.631 28.8381 144.226 28.6619 143.768 28.6619C142.112 28.6619 140.315 29.7015 138.376 31.7807C136.473 33.8246 135.381 35.9566 135.099 38.1767ZM166.851 42.0884L166.798 44.3085C165.988 44.3437 164.878 44.379 163.468 44.4142C162.058 44.4494 161.072 44.4847 160.508 44.5199C159.979 44.5199 159.239 44.5552 158.288 44.6256C156.667 44.7314 155.169 44.9428 153.795 45.26C152.068 45.6476 151.134 45.8414 150.993 45.8414C150.323 45.8414 149.636 45.4362 148.931 44.6256C148.262 43.8151 147.927 43.0222 147.927 42.2469C147.927 40.7669 153.213 36.309 163.785 28.8734C163.327 28.8381 162.27 28.8205 160.614 28.8205C158.992 28.8205 156.156 29.1729 152.103 29.8777L151.786 28.0804C154.182 26.6356 158.658 25.9132 165.212 25.9132C166.587 25.9132 167.556 26.0189 168.12 26.2303C168.719 26.4418 169.018 26.9175 169.018 27.6576C169.018 28.4681 168.56 29.2081 167.644 29.8777C167.468 30.0187 167.168 30.2125 166.745 30.4592C166.358 30.7058 165.635 31.1992 164.578 31.9392C163.521 32.6793 162.446 33.4546 161.354 34.2651C160.296 35.0404 158.94 36.2209 157.283 37.8067C155.627 39.3925 154.041 41.1369 152.526 43.0398C157.389 42.2646 160.666 41.8769 162.358 41.8769C164.085 41.8769 165.582 41.9474 166.851 42.0884Z" fill="#DAE3E5"/>
<path d="M39.2241 27.0019L41.8532 23.7944H24.4532V19.0621L52.1942 19.0621L36.858 38.3244L34.1238 41.7246H52.5744V46.4569H24.0457L39.2241 27.0019Z" fill="#507DBC"/>
<path d="M23.3281 23.9342H5.55566V29.403H21.2949V33.9781H5.55566V41.6022H20.1689L23.498 46.4567H0V19.0621H23.3281V23.9342Z" fill="#507DBC"/>
<path d="M59.2271 39.6393V46.4567H53.6715V39.6744L46.8687 27.9615L50.3687 23.4537L56.4225 34.6442L64.7486 19.0621H71.0406L59.2271 39.6393Z" fill="#507DBC"/>
</svg>
