<?xml version="1.0" encoding="UTF-8"?>
<svg xmlns="http://www.w3.org/2000/svg" viewBox="0 0 1600 1000" font-family="'Consolas','Courier New',monospace">
  <defs>
    <marker id="ah-blue" viewBox="0 0 10 10" refX="9" refY="5" markerWidth="6" markerHeight="6" orient="auto-start-reverse">
      <path d="M0 0 L10 5 L0 10 z" fill="#507DBC"/>
    </marker>
    <marker id="ah-blue-start" viewBox="0 0 10 10" refX="1" refY="5" markerWidth="6" markerHeight="6" orient="auto-start-reverse">
      <path d="M10 0 L0 5 L10 10 z" fill="#507DBC"/>
    </marker>
    <marker id="ah-green" viewBox="0 0 10 10" refX="9" refY="5" markerWidth="6" markerHeight="6" orient="auto-start-reverse">
      <path d="M0 0 L10 5 L0 10 z" fill="#4CAF50"/>
    </marker>
    <marker id="ah-orange" viewBox="0 0 10 10" refX="9" refY="5" markerWidth="6" markerHeight="6" orient="auto-start-reverse">
      <path d="M0 0 L10 5 L0 10 z" fill="#FF9800"/>
    </marker>
    <marker id="ah-purple" viewBox="0 0 10 10" refX="9" refY="5" markerWidth="6" markerHeight="6" orient="auto-start-reverse">
      <path d="M0 0 L10 5 L0 10 z" fill="#9C27B0"/>
    </marker>
    <marker id="ah-purple-start" viewBox="0 0 10 10" refX="1" refY="5" markerWidth="6" markerHeight="6" orient="auto-start-reverse">
      <path d="M10 0 L0 5 L10 10 z" fill="#9C27B0"/>
    </marker>
  </defs>

  <!-- Background -->
  <rect width="1600" height="1000" fill="#04080F"/>

  <!-- Title block -->
  <text x="800" y="32" fill="#E0E0E0" font-size="24" font-weight="bold" text-anchor="middle">EZY Notez  —  End-to-End Architecture</text>
  <text x="800" y="52" fill="#888" font-size="11" text-anchor="middle">Next.js 16 (Vercel)  ·  Express 5 (Railway)  ·  Unified FastAPI ML (Railway)  ·  Supabase (PostgreSQL + pgvector)</text>

  <!-- =============== LAYER 1 : CLIENT =============== -->
  <g id="client">
    <rect x="20" y="80" width="360" height="650" rx="6" fill="#111721" stroke="#507DBC" stroke-width="2"/>
    <text x="200" y="103" fill="#E0E0E0" font-size="14" font-weight="bold" text-anchor="middle">CLIENT  ·  Browser</text>
    <line x1="40" y1="113" x2="360" y2="113" stroke="#507DBC" stroke-width="0.5" opacity="0.5"/>

    <rect x="40" y="128" width="320" height="76" rx="4" fill="#0a0f17" stroke="#507DBC" stroke-width="1"/>
    <text x="200" y="150" fill="#E0E0E0" font-size="13" font-weight="bold" text-anchor="middle">Next.js 16 App  (App Router)</text>
    <text x="200" y="168" fill="#aaa" font-size="10" text-anchor="middle">React 19  ·  TypeScript  ·  SSR + RSC</text>
    <text x="200" y="186" fill="#aaa" font-size="10" text-anchor="middle">routes: /(dashboard) · /workspaces · /study-rooms · /auth</text>

    <rect x="40" y="216" width="320" height="68" rx="4" fill="#0a0f17" stroke="#507DBC" stroke-width="1"/>
    <text x="200" y="237" fill="#E0E0E0" font-size="13" font-weight="bold" text-anchor="middle">Tailwind 4  +  shadcn/ui  +  Zustand</text>
    <text x="200" y="255" fill="#aaa" font-size="10" text-anchor="middle">radix-ui primitives · lucide-react · cva</text>
    <text x="200" y="271" fill="#aaa" font-size="10" text-anchor="middle">global stores (workspace · user · session)</text>

    <rect x="40" y="296" width="320" height="68" rx="4" fill="#0a0f17" stroke="#507DBC" stroke-width="1"/>
    <text x="200" y="317" fill="#E0E0E0" font-size="13" font-weight="bold" text-anchor="middle">Framer Motion  +  Socket.IO-client</text>
    <text x="200" y="335" fill="#aaa" font-size="10" text-anchor="middle">page transitions · Lottie (Teddy companion)</text>
    <text x="200" y="351" fill="#aaa" font-size="10" text-anchor="middle">live study-room session events</text>

    <rect x="40" y="376" width="320" height="68" rx="4" fill="#0a0f17" stroke="#9C27B0" stroke-width="1"/>
    <text x="200" y="397" fill="#E0E0E0" font-size="13" font-weight="bold" text-anchor="middle">@supabase/supabase-js  (Realtime + Auth)</text>
    <text x="200" y="415" fill="#aaa" font-size="10" text-anchor="middle">postgres_changes subscriptions · broadcast</text>
    <text x="200" y="431" fill="#aaa" font-size="10" text-anchor="middle">JWT Bearer + HttpOnly cookie fallback</text>

    <rect x="40" y="456" width="320" height="76" rx="4" fill="#0a0f17" stroke="#9C27B0" stroke-width="1"/>
    <text x="200" y="478" fill="#E0E0E0" font-size="13" font-weight="bold" text-anchor="middle">WebRTC P2P Voice  (STUN mesh)</text>
    <text x="200" y="496" fill="#aaa" font-size="10" text-anchor="middle">stun.l.google.com:19302  ·  ≤ 6 peers</text>
    <text x="200" y="512" fill="#aaa" font-size="10" text-anchor="middle">signaling via Supabase broadcast channel</text>
    <text x="200" y="528" fill="#aaa" font-size="10" text-anchor="middle">used inside Study Room lobby</text>

    <rect x="40" y="544" width="320" height="68" rx="4" fill="#0a0f17" stroke="#FF9800" stroke-width="1"/>
    <text x="200" y="565" fill="#E0E0E0" font-size="13" font-weight="bold" text-anchor="middle">@uploadthing/react</text>
    <text x="200" y="583" fill="#aaa" font-size="10" text-anchor="middle">direct browser → UploadThing upload</text>
    <text x="200" y="599" fill="#aaa" font-size="10" text-anchor="middle">returns fileUrl, then POST to Express</text>

    <rect x="40" y="624" width="320" height="62" rx="4" fill="#0a0f17" stroke="#507DBC" stroke-width="1"/>
    <text x="200" y="645" fill="#E0E0E0" font-size="12" font-weight="bold" text-anchor="middle">Axios HTTP client  ·  fetch</text>
    <text x="200" y="663" fill="#aaa" font-size="10" text-anchor="middle">REST calls to Express API (JWT Authorization)</text>
    <text x="200" y="679" fill="#aaa" font-size="10" text-anchor="middle">polling for async pipelines (quiz/summary)</text>

    <text x="200" y="715" fill="#666" font-size="10" text-anchor="middle">deployed on Vercel  ·  Edge SSR</text>
  </g>

  <!-- =============== LAYER 2 : EXPRESS BACKEND =============== -->
  <g id="express">
    <rect x="400" y="80" width="420" height="650" rx="6" fill="#111721" stroke="#507DBC" stroke-width="2"/>
    <text x="610" y="103" fill="#E0E0E0" font-size="14" font-weight="bold" text-anchor="middle">EXPRESS.JS 5 BACKEND  ·  Railway  (port 3001)</text>
    <line x1="420" y1="113" x2="800" y2="113" stroke="#507DBC" stroke-width="0.5" opacity="0.5"/>

    <rect x="420" y="124" width="380" height="32" rx="4" fill="#0a0f17" stroke="#507DBC" stroke-width="1"/>
    <text x="610" y="144" fill="#E0E0E0" font-size="11" font-weight="bold" text-anchor="middle">auth.middleware  ·  JWT verify  ·  cookie fallback  ·  token rotation</text>

    <text x="610" y="178" fill="#888" font-size="10" text-anchor="middle">— routes  /  controllers  /  services —</text>

    <!-- Row 1 -->
    <rect x="420" y="186" width="120" height="44" rx="3" fill="#0a0f17" stroke="#507DBC" stroke-width="1"/>
    <text x="480" y="205" fill="#E0E0E0" font-size="12" font-weight="bold" text-anchor="middle">/auth</text>
    <text x="480" y="221" fill="#aaa" font-size="9" text-anchor="middle">register · login · me</text>

    <rect x="550" y="186" width="120" height="44" rx="3" fill="#0a0f17" stroke="#507DBC" stroke-width="1"/>
    <text x="610" y="205" fill="#E0E0E0" font-size="12" font-weight="bold" text-anchor="middle">/workspaces</text>
    <text x="610" y="221" fill="#aaa" font-size="9" text-anchor="middle">slug · aura color</text>

    <rect x="680" y="186" width="120" height="44" rx="3" fill="#0a0f17" stroke="#507DBC" stroke-width="1"/>
    <text x="740" y="205" fill="#E0E0E0" font-size="12" font-weight="bold" text-anchor="middle">/resources</text>
    <text x="740" y="221" fill="#aaa" font-size="9" text-anchor="middle">PDF·PPTX·DOCX·audio·YT</text>

    <!-- Row 2 -->
    <rect x="420" y="238" width="120" height="44" rx="3" fill="#0a0f17" stroke="#507DBC" stroke-width="1"/>
    <text x="480" y="257" fill="#E0E0E0" font-size="12" font-weight="bold" text-anchor="middle">/summaries</text>
    <text x="480" y="273" fill="#aaa" font-size="9" text-anchor="middle">general · custom</text>

    <rect x="550" y="238" width="120" height="44" rx="3" fill="#0a0f17" stroke="#507DBC" stroke-width="1"/>
    <text x="610" y="257" fill="#E0E0E0" font-size="12" font-weight="bold" text-anchor="middle">/flashcards</text>
    <text x="610" y="273" fill="#aaa" font-size="9" text-anchor="middle">generate · status · CRUD</text>

    <rect x="680" y="238" width="120" height="44" rx="3" fill="#0a0f17" stroke="#507DBC" stroke-width="1"/>
    <text x="740" y="257" fill="#E0E0E0" font-size="12" font-weight="bold" text-anchor="middle">/quiz</text>
    <text x="740" y="273" fill="#aaa" font-size="9" text-anchor="middle">generate · attempt · score</text>

    <!-- Row 3 -->
    <rect x="420" y="290" width="120" height="44" rx="3" fill="#0a0f17" stroke="#507DBC" stroke-width="1"/>
    <text x="480" y="309" fill="#E0E0E0" font-size="11" font-weight="bold" text-anchor="middle">/chatie  (proxy)</text>
    <text x="480" y="325" fill="#aaa" font-size="9" text-anchor="middle">embed · chat · history</text>

    <rect x="550" y="290" width="120" height="44" rx="3" fill="#0a0f17" stroke="#507DBC" stroke-width="1"/>
    <text x="610" y="309" fill="#E0E0E0" font-size="12" font-weight="bold" text-anchor="middle">/study-rooms</text>
    <text x="610" y="325" fill="#aaa" font-size="9" text-anchor="middle">OTP · invites · session</text>

    <rect x="680" y="290" width="120" height="44" rx="3" fill="#0a0f17" stroke="#507DBC" stroke-width="1"/>
    <text x="740" y="309" fill="#E0E0E0" font-size="12" font-weight="bold" text-anchor="middle">/analytics</text>
    <text x="740" y="325" fill="#aaa" font-size="9" text-anchor="middle">user stats</text>

    <!-- Socket.IO server -->
    <rect x="420" y="346" width="380" height="32" rx="4" fill="#0a0f17" stroke="#9C27B0" stroke-width="1"/>
    <text x="610" y="366" fill="#E0E0E0" font-size="11" font-weight="bold" text-anchor="middle">Socket.IO server  ·  live study-room session events</text>

    <!-- child_process region -->
    <text x="610" y="406" fill="#888" font-size="10" text-anchor="middle">— child_process.spawn  ·  local Python scripts —</text>

    <rect x="420" y="416" width="380" height="46" rx="4" fill="#0a0f17" stroke="#507DBC" stroke-width="1"/>
    <text x="610" y="436" fill="#E0E0E0" font-size="11" font-weight="bold" text-anchor="middle">whisper_transcribe.py  →  Whisper tiny  (local, ~75 MB)</text>
    <text x="610" y="452" fill="#aaa" font-size="9" text-anchor="middle">audio (mp3·wav·m4a·webm·ogg) → transcript on stdout</text>

    <rect x="420" y="470" width="380" height="46" rx="4" fill="#0a0f17" stroke="#507DBC" stroke-width="1"/>
    <text x="610" y="490" fill="#E0E0E0" font-size="11" font-weight="bold" text-anchor="middle">youtube_transcript.py  →  youtube-transcript-api</text>
    <text x="610" y="506" fill="#aaa" font-size="9" text-anchor="middle">URL → captions + title (regex fallback)</text>

    <rect x="420" y="524" width="380" height="46" rx="4" fill="#0a0f17" stroke="#507DBC" stroke-width="1"/>
    <text x="610" y="544" fill="#E0E0E0" font-size="11" font-weight="bold" text-anchor="middle">generate_flashcards.py  →  NLTK TF-IDF pipeline</text>
    <text x="610" y="560" fill="#aaa" font-size="9" text-anchor="middle">tokenize · POS-tag · score · pattern Q-gen · dedupe</text>

    <!-- in-process libs -->
    <rect x="420" y="580" width="380" height="44" rx="4" fill="#0a0f17" stroke="#FF9800" stroke-width="1"/>
    <text x="610" y="600" fill="#E0E0E0" font-size="11" font-weight="bold" text-anchor="middle">pdf-parse (in-proc)  +  UploadThing SDK  +  Resend SDK</text>
    <text x="610" y="616" fill="#aaa" font-size="9" text-anchor="middle">PDF text · file URL handling · email invites</text>

    <!-- pg client -->
    <rect x="420" y="630" width="380" height="40" rx="4" fill="#0a0f17" stroke="#507DBC" stroke-width="1"/>
    <text x="610" y="649" fill="#E0E0E0" font-size="11" font-weight="bold" text-anchor="middle">supabase-js  +  pg (raw)</text>
    <text x="610" y="664" fill="#aaa" font-size="9" text-anchor="middle">DB writes · RLS-bypassing service role · bulk inserts</text>

    <text x="610" y="710" fill="#666" font-size="10" text-anchor="middle">Docker  ·  node:20-alpine  ·  $PORT</text>
  </g>

  <!-- =============== LAYER 3 : FASTAPI ML =============== -->
  <g id="fastapi">
    <rect x="840" y="80" width="340" height="650" rx="6" fill="#111721" stroke="#507DBC" stroke-width="2"/>
    <text x="1010" y="103" fill="#E0E0E0" font-size="14" font-weight="bold" text-anchor="middle">FASTAPI ML SERVICE  ·  Railway  (port 8000)</text>
    <line x1="860" y1="113" x2="1160" y2="113" stroke="#507DBC" stroke-width="0.5" opacity="0.5"/>

    <text x="1010" y="129" fill="#888" font-size="10" text-anchor="middle">main.py  ·  uvicorn  ·  /quiz/* + /chatie/* + /flashcards/*</text>

    <!-- /quiz/* router -->
    <rect x="860" y="142" width="300" height="246" rx="4" fill="#0a0f17" stroke="#4CAF50" stroke-width="1.5"/>
    <text x="1010" y="162" fill="#E0E0E0" font-size="13" font-weight="bold" text-anchor="middle">/quiz/*  router</text>
    <text x="1010" y="178" fill="#aaa" font-size="10" text-anchor="middle">generate-quiz  ·  health</text>
    <line x1="876" y1="186" x2="1144" y2="186" stroke="#4CAF50" stroke-width="0.5" opacity="0.4"/>

    <text x="1010" y="204" fill="#4CAF50" font-size="11" font-weight="bold" text-anchor="middle">4-stage pipeline</text>

    <rect x="876" y="214" width="268" height="28" rx="3" fill="#0d1f17" stroke="#4CAF50" stroke-width="0.5"/>
    <text x="1010" y="232" fill="#E0E0E0" font-size="10" text-anchor="middle">1 · Preprocess (NLTK · denoise · 3000-char trunc)</text>

    <rect x="876" y="246" width="268" height="28" rx="3" fill="#0d1f17" stroke="#4CAF50" stroke-width="0.5"/>
    <text x="1010" y="264" fill="#E0E0E0" font-size="10" text-anchor="middle">2 · Generate  →  OpenRouter Llama 3.1 8B</text>

    <rect x="876" y="278" width="268" height="28" rx="3" fill="#0d1f17" stroke="#4CAF50" stroke-width="0.5"/>
    <text x="1010" y="296" fill="#E0E0E0" font-size="10" text-anchor="middle">3 · Parse JSON · resolve correct_option_id</text>

    <rect x="876" y="310" width="268" height="28" rx="3" fill="#0d1f17" stroke="#4CAF50" stroke-width="0.5"/>
    <text x="1010" y="328" fill="#E0E0E0" font-size="10" text-anchor="middle">4 · Filter (8-word min · Jaccard 0.7 dedupe)</text>

    <text x="1010" y="358" fill="#aaa" font-size="10" text-anchor="middle">over-generates 1.5×  ·  retry @ T=0.9</text>
    <text x="1010" y="376" fill="#aaa" font-size="9" text-anchor="middle">also serves Study Room AI question generation</text>

    <!-- /chatie/* router -->
    <rect x="860" y="402" width="300" height="282" rx="4" fill="#0a0f17" stroke="#4CAF50" stroke-width="1.5"/>
    <text x="1010" y="422" fill="#E0E0E0" font-size="13" font-weight="bold" text-anchor="middle">/chatie/*  router  (RAG)</text>
    <text x="1010" y="438" fill="#aaa" font-size="10" text-anchor="middle">embed-resource  ·  chat  ·  chat-history</text>
    <line x1="876" y1="446" x2="1144" y2="446" stroke="#4CAF50" stroke-width="0.5" opacity="0.4"/>

    <rect x="876" y="456" width="268" height="46" rx="3" fill="#0d1f17" stroke="#4CAF50" stroke-width="0.5"/>
    <text x="1010" y="475" fill="#E0E0E0" font-size="11" font-weight="bold" text-anchor="middle">Chunk + Embed</text>
    <text x="1010" y="491" fill="#aaa" font-size="9" text-anchor="middle">tiktoken 500 tok / 50 overlap  ·  embedding-004 (768d)</text>

    <rect x="876" y="510" width="268" height="46" rx="3" fill="#0d1f17" stroke="#507DBC" stroke-width="0.5"/>
    <text x="1010" y="529" fill="#E0E0E0" font-size="11" font-weight="bold" text-anchor="middle">Retrieve</text>
    <text x="1010" y="545" fill="#aaa" font-size="9" text-anchor="middle">match_resource_embeddings RPC · cosine top-5</text>

    <rect x="876" y="564" width="268" height="46" rx="3" fill="#0d1f17" stroke="#4CAF50" stroke-width="0.5"/>
    <text x="1010" y="583" fill="#E0E0E0" font-size="11" font-weight="bold" text-anchor="middle">Generate Answer</text>
    <text x="1010" y="599" fill="#aaa" font-size="9" text-anchor="middle">Gemini 2.0 Flash  +  source references</text>

    <rect x="876" y="618" width="268" height="46" rx="3" fill="#0d1f17" stroke="#507DBC" stroke-width="0.5"/>
    <text x="1010" y="637" fill="#E0E0E0" font-size="11" font-weight="bold" text-anchor="middle">Persist Turn</text>
    <text x="1010" y="653" fill="#aaa" font-size="9" text-anchor="middle">chat_history  (role · content · sources jsonb)</text>

    <text x="1010" y="710" fill="#666" font-size="10" text-anchor="middle">Docker  ·  python:3.10-slim  ·  CPU PyTorch</text>
  </g>

  <!-- =============== LAYER 4 : SUPABASE =============== -->
  <g id="supabase">
    <rect x="1200" y="80" width="380" height="650" rx="6" fill="#111721" stroke="#507DBC" stroke-width="2"/>
    <text x="1390" y="103" fill="#E0E0E0" font-size="14" font-weight="bold" text-anchor="middle">SUPABASE  ·  PostgreSQL + pgvector</text>
    <line x1="1220" y1="113" x2="1560" y2="113" stroke="#507DBC" stroke-width="0.5" opacity="0.5"/>

    <text x="1390" y="129" fill="#888" font-size="10" text-anchor="middle">managed Postgres  ·  RLS on all user tables</text>

    <text x="1390" y="150" fill="#E0E0E0" font-size="12" font-weight="bold" text-anchor="middle">17 Tables</text>

    <g font-size="10" fill="#cfcfcf">
      <text x="1220" y="170">• profiles</text>
      <text x="1410" y="170">• workspaces</text>
      <text x="1220" y="186">• resources</text>
      <text x="1410" y="186">• summaries</text>
      <text x="1220" y="202">• flashcard_sets</text>
      <text x="1410" y="202">• flashcards</text>
      <text x="1220" y="218">• quizzes</text>
      <text x="1410" y="218">• quiz_questions</text>
      <text x="1220" y="234">• quiz_attempts</text>
      <text x="1410" y="234">• used_questions</text>
      <text x="1220" y="250">• study_rooms</text>
      <text x="1410" y="250">• study_room_participants</text>
      <text x="1220" y="266">• study_room_invites</text>
      <text x="1410" y="266">• study_room_questions</text>
      <text x="1220" y="282">• study_room_answers</text>
      <text x="1410" y="282">• chat_history</text>
      <text x="1220" y="298" fill="#4CAF50">• resource_embeddings (vec)</text>
    </g>

    <line x1="1220" y1="312" x2="1560" y2="312" stroke="#507DBC" stroke-width="0.5" opacity="0.4"/>

    <!-- pgvector card -->
    <rect x="1220" y="324" width="340" height="80" rx="4" fill="#0d1f17" stroke="#4CAF50" stroke-width="1"/>
    <text x="1390" y="344" fill="#E0E0E0" font-size="12" font-weight="bold" text-anchor="middle">pgvector  ·  resource_embeddings.embedding</text>
    <text x="1390" y="362" fill="#aaa" font-size="10" text-anchor="middle">vector(768)  ·  ivfflat  ·  cosine_ops  ·  lists=100</text>
    <text x="1390" y="380" fill="#aaa" font-size="10" text-anchor="middle">RPC  match_resource_embeddings(query, ws, ids, k)</text>
    <text x="1390" y="396" fill="#888" font-size="9" text-anchor="middle">similarity = 1 − (embedding &lt;=&gt; query)</text>

    <!-- RLS card -->
    <rect x="1220" y="414" width="340" height="56" rx="4" fill="#0a0f17" stroke="#507DBC" stroke-width="1"/>
    <text x="1390" y="434" fill="#E0E0E0" font-size="12" font-weight="bold" text-anchor="middle">Row Level Security</text>
    <text x="1390" y="452" fill="#aaa" font-size="10" text-anchor="middle">per-table SELECT/INSERT/UPDATE/DELETE policies</text>
    <text x="1390" y="466" fill="#888" font-size="9" text-anchor="middle">auth.uid()  ·  auth.jwt()-&gt;&gt;'email'</text>

    <!-- Realtime card -->
    <rect x="1220" y="480" width="340" height="56" rx="4" fill="#0a0f17" stroke="#9C27B0" stroke-width="1"/>
    <text x="1390" y="500" fill="#E0E0E0" font-size="12" font-weight="bold" text-anchor="middle">Realtime  ·  postgres_changes  +  broadcast</text>
    <text x="1390" y="518" fill="#aaa" font-size="10" text-anchor="middle">study_rooms · study_room_invites · participants</text>
    <text x="1390" y="532" fill="#888" font-size="9" text-anchor="middle">voice signaling on  voice-room-{id}  channel</text>

    <!-- Auth card -->
    <rect x="1220" y="546" width="340" height="56" rx="4" fill="#0a0f17" stroke="#FF9800" stroke-width="1"/>
    <text x="1390" y="566" fill="#E0E0E0" font-size="12" font-weight="bold" text-anchor="middle">Supabase Auth  ·  auth.users  +  JWT</text>
    <text x="1390" y="584" fill="#aaa" font-size="10" text-anchor="middle">email/password + Google OAuth</text>
    <text x="1390" y="598" fill="#888" font-size="9" text-anchor="middle">handle_new_user trigger → public.profiles</text>

    <!-- Triggers + functions -->
    <rect x="1220" y="612" width="340" height="56" rx="4" fill="#0a0f17" stroke="#507DBC" stroke-width="1"/>
    <text x="1390" y="632" fill="#E0E0E0" font-size="12" font-weight="bold" text-anchor="middle">Migrations  ·  SQL files in /supabase</text>
    <text x="1390" y="650" fill="#aaa" font-size="10" text-anchor="middle">create_*_tables.sql  ·  alter_*  ·  RPCs</text>
    <text x="1390" y="664" fill="#888" font-size="9" text-anchor="middle">7 SQL migrations · pgvector extension enabled</text>

    <text x="1390" y="710" fill="#666" font-size="10" text-anchor="middle">accessed by Express, FastAPI &amp; Browser</text>
  </g>

  <!-- =============== LAYER 5 : EXTERNAL SERVICES =============== -->
  <g id="external">
    <text x="640" y="765" fill="#FF9800" font-size="13" font-weight="bold" text-anchor="middle">EXTERNAL  ·  3rd-party APIs &amp; Hosted Services</text>

    <rect x="20" y="780" width="240" height="84" rx="4" fill="#111721" stroke="#FF9800" stroke-width="1.5"/>
    <text x="140" y="803" fill="#E0E0E0" font-size="13" font-weight="bold" text-anchor="middle">OpenRouter API</text>
    <text x="140" y="821" fill="#aaa" font-size="10" text-anchor="middle">openrouter.ai/api/v1/chat/completions</text>
    <text x="140" y="839" fill="#aaa" font-size="10" text-anchor="middle">meta-llama/llama-3.1-8b-instruct</text>
    <text x="140" y="855" fill="#4CAF50" font-size="10" font-weight="bold" text-anchor="middle">quiz · summary · room insights</text>

    <rect x="280" y="780" width="240" height="84" rx="4" fill="#111721" stroke="#FF9800" stroke-width="1.5"/>
    <text x="400" y="803" fill="#E0E0E0" font-size="13" font-weight="bold" text-anchor="middle">Google Gemini API</text>
    <text x="400" y="821" fill="#aaa" font-size="10" text-anchor="middle">text-embedding-004 (768d)</text>
    <text x="400" y="839" fill="#aaa" font-size="10" text-anchor="middle">gemini-2.0-flash</text>
    <text x="400" y="855" fill="#4CAF50" font-size="10" font-weight="bold" text-anchor="middle">Chatie embeddings + chat</text>

    <rect x="540" y="780" width="220" height="84" rx="4" fill="#111721" stroke="#FF9800" stroke-width="1.5"/>
    <text x="650" y="803" fill="#E0E0E0" font-size="13" font-weight="bold" text-anchor="middle">UploadThing</text>
    <text x="650" y="821" fill="#aaa" font-size="10" text-anchor="middle">hosted file storage</text>
    <text x="650" y="839" fill="#aaa" font-size="10" text-anchor="middle">PDF · PPTX · DOCX · audio</text>
    <text x="650" y="855" fill="#FF9800" font-size="10" font-weight="bold" text-anchor="middle">browser uploads · fileUrl</text>

    <rect x="780" y="780" width="220" height="84" rx="4" fill="#111721" stroke="#FF9800" stroke-width="1.5"/>
    <text x="890" y="803" fill="#E0E0E0" font-size="13" font-weight="bold" text-anchor="middle">Resend</text>
    <text x="890" y="821" fill="#aaa" font-size="10" text-anchor="middle">transactional email</text>
    <text x="890" y="839" fill="#aaa" font-size="10" text-anchor="middle">study-room invites</text>
    <text x="890" y="855" fill="#FF9800" font-size="10" font-weight="bold" text-anchor="middle">token-link emails</text>

    <rect x="1020" y="780" width="240" height="84" rx="4" fill="#111721" stroke="#FF9800" stroke-width="1.5"/>
    <text x="1140" y="803" fill="#E0E0E0" font-size="13" font-weight="bold" text-anchor="middle">YouTube  /  Whisper (local)</text>
    <text x="1140" y="821" fill="#aaa" font-size="10" text-anchor="middle">youtube-transcript-api</text>
    <text x="1140" y="839" fill="#aaa" font-size="10" text-anchor="middle">openai-whisper tiny (~75 MB)</text>
    <text x="1140" y="855" fill="#FF9800" font-size="10" font-weight="bold" text-anchor="middle">spawned by Express</text>
  </g>

  <!-- =============== LEGEND =============== -->
  <g id="legend">
    <rect x="1290" y="775" width="290" height="195" rx="6" fill="#0a0f17" stroke="#507DBC" stroke-width="1"/>
    <text x="1435" y="797" fill="#E0E0E0" font-size="13" font-weight="bold" text-anchor="middle">LEGEND</text>
    <line x1="1305" y1="805" x2="1565" y2="805" stroke="#507DBC" stroke-width="0.5" opacity="0.4"/>

    <line x1="1310" y1="822" x2="1370" y2="822" stroke="#507DBC" stroke-width="2" marker-end="url(#ah-blue)"/>
    <text x="1380" y="826" fill="#E0E0E0" font-size="11">REST / HTTP / SQL</text>

    <line x1="1310" y1="846" x2="1370" y2="846" stroke="#4CAF50" stroke-width="2" marker-end="url(#ah-green)"/>
    <text x="1380" y="850" fill="#E0E0E0" font-size="11">AI / ML inference call</text>

    <line x1="1310" y1="870" x2="1370" y2="870" stroke="#FF9800" stroke-width="2" marker-end="url(#ah-orange)"/>
    <text x="1380" y="874" fill="#E0E0E0" font-size="11">External 3rd-party API</text>

    <line x1="1310" y1="894" x2="1370" y2="894" stroke="#9C27B0" stroke-width="2" marker-end="url(#ah-purple)"/>
    <text x="1380" y="898" fill="#E0E0E0" font-size="11">Realtime / WebSocket / P2P</text>

    <text x="1310" y="924" fill="#888" font-size="10">Author: Akila Lakshitha</text>
    <text x="1310" y="940" fill="#888" font-size="10">Module: PUSL3190 (FYP)</text>
    <text x="1310" y="956" fill="#888" font-size="10">Generated 2026-05-10</text>
  </g>

  <!-- =============== ARROWS / DATA FLOWS =============== -->
  <g id="arrows" font-size="10" font-family="'Consolas','Courier New',monospace">

    <!-- (1) Browser → Express : REST + JWT -->
    <line x1="380" y1="654" x2="400" y2="654" stroke="#507DBC" stroke-width="2" marker-end="url(#ah-blue)"/>
    <text x="389" y="648" fill="#507DBC" text-anchor="middle">①</text>
    <text x="389" y="668" fill="#cfcfcf" font-size="9" text-anchor="middle">REST · JWT</text>

    <!-- (4) Browser ↔ Express : Socket.IO live quiz -->
    <line x1="380" y1="362" x2="400" y2="362" stroke="#9C27B0" stroke-width="2" marker-end="url(#ah-purple)" marker-start="url(#ah-purple-start)"/>
    <text x="389" y="356" fill="#9C27B0" text-anchor="middle">④</text>
    <text x="389" y="376" fill="#cfcfcf" font-size="9" text-anchor="middle">Socket.IO</text>

    <!-- (2) Browser ↔ Supabase : Realtime WS (over the top) -->
    <path d="M 360 410 Q 360 70 1220 70 Q 1390 70 1390 80" stroke="#9C27B0" stroke-width="2" fill="none" marker-end="url(#ah-purple)" marker-start="url(#ah-purple-start)" stroke-dasharray="0"/>
    <text x="800" y="64" fill="#9C27B0" font-size="11" text-anchor="middle">②  Realtime WS  (postgres_changes · broadcast)</text>

    <!-- (3) Browser ↔ Browser WebRTC P2P loop -->
    <path d="M 50 490 Q 14 490 14 510 Q 14 530 50 510" stroke="#9C27B0" stroke-width="2" fill="none" marker-end="url(#ah-purple)" stroke-dasharray="3,3"/>
    <text x="14" y="554" fill="#9C27B0" font-size="9" text-anchor="middle">③ P2P</text>
    <text x="14" y="566" fill="#9C27B0" font-size="9" text-anchor="middle">STUN</text>

    <!-- (5) Express → FastAPI : HTTP POST -->
    <line x1="820" y1="266" x2="840" y2="266" stroke="#507DBC" stroke-width="2" marker-end="url(#ah-blue)"/>
    <text x="830" y="260" fill="#507DBC" font-size="10" text-anchor="middle">⑤</text>
    <text x="830" y="280" fill="#cfcfcf" font-size="9" text-anchor="middle">HTTP</text>

    <!-- (5b) Express → FastAPI : Chatie embed/chat -->
    <line x1="820" y1="430" x2="840" y2="430" stroke="#507DBC" stroke-width="2" marker-end="url(#ah-blue)"/>
    <text x="830" y="424" fill="#507DBC" font-size="10" text-anchor="middle">⑤</text>
    <text x="830" y="444" fill="#cfcfcf" font-size="9" text-anchor="middle">/chatie</text>

    <!-- (7) Express → Supabase : SQL (top corridor, parallel to realtime) -->
    <path d="M 820 140 V 76 H 1300 V 80" stroke="#507DBC" stroke-width="2" fill="none" marker-end="url(#ah-blue)"/>
    <text x="1100" y="72" fill="#507DBC" font-size="11" text-anchor="middle">⑦  SQL  ·  supabase-js + pg</text>

    <!-- (11) FastAPI → Supabase : vector ops -->
    <path d="M 1160 380 H 1190 L 1200 360" stroke="#507DBC" stroke-width="2" fill="none" marker-end="url(#ah-blue)"/>
    <text x="1180" y="352" fill="#507DBC" font-size="10" text-anchor="middle">⑪</text>
    <text x="1180" y="396" fill="#cfcfcf" font-size="9" text-anchor="middle">vector ops</text>

    <!-- FastAPI also reads chat_history & writes (blue) -->
    <line x1="1160" y1="640" x2="1200" y2="640" stroke="#507DBC" stroke-width="1.5" marker-end="url(#ah-blue)" stroke-dasharray="4,3"/>
    <text x="1180" y="634" fill="#cfcfcf" font-size="9" text-anchor="middle">chat_history</text>

    <!-- (9) FastAPI /quiz → OpenRouter (down-left) -->
    <path d="M 880 320 L 880 754 L 140 754 L 140 780" stroke="#4CAF50" stroke-width="2" fill="none" marker-end="url(#ah-green)"/>
    <text x="500" y="748" fill="#4CAF50" font-size="11">⑨  Llama 3.1 8B  (quiz · summary)</text>

    <!-- (9b) Express → OpenRouter (summary direct) -->
    <path d="M 460 624 L 460 768 L 200 768 L 200 780" stroke="#4CAF50" stroke-width="1.5" fill="none" marker-end="url(#ah-green)" stroke-dasharray="5,3"/>
    <text x="280" y="765" fill="#4CAF50" font-size="9">summary direct</text>

    <!-- (10) FastAPI /chatie → Gemini -->
    <path d="M 990 684 L 990 766 L 400 766 L 400 780" stroke="#4CAF50" stroke-width="2" fill="none" marker-end="url(#ah-green)"/>
    <text x="700" y="763" fill="#4CAF50" font-size="11">⑩  Gemini  (embed + chat)</text>

    <!-- (6) Express → UploadThing (file URL) -->
    <path d="M 700 624 L 700 758 L 650 758 L 650 780" stroke="#FF9800" stroke-width="2" fill="none" marker-end="url(#ah-orange)"/>
    <text x="700" y="752" fill="#FF9800" font-size="10">⑥ fileUrl</text>

    <!-- (8) Express → Resend (email invite) -->
    <path d="M 770 624 L 770 770 L 890 770 L 890 780" stroke="#FF9800" stroke-width="2" fill="none" marker-end="url(#ah-orange)"/>
    <text x="830" y="763" fill="#FF9800" font-size="10">⑧ invite email</text>

    <!-- Browser → UploadThing direct upload -->
    <path d="M 200 612 L 200 770 L 600 770 L 600 780" stroke="#FF9800" stroke-width="1.5" fill="none" marker-end="url(#ah-orange)" stroke-dasharray="5,3"/>
    <text x="370" y="766" fill="#FF9800" font-size="9">browser direct upload</text>

    <!-- Browser → Supabase Auth (down via right of client) -->
    <path d="M 200 444 L 380 444 L 380 740 L 1430 740 L 1430 760 L 1430 780" stroke="#FF9800" stroke-width="1.5" fill="none" marker-end="url(#ah-orange)" stroke-dasharray="5,3"/>
    <text x="900" y="734" fill="#FF9800" font-size="9">Supabase Auth (JWT issue)  ·  via supabase-js</text>

    <!-- (12) Express → child_process scripts (small internal arrows) -->
    <line x1="740" y1="230" x2="740" y2="416" stroke="#507DBC" stroke-width="1" marker-end="url(#ah-blue)" stroke-dasharray="3,3"/>
    <line x1="740" y1="230" x2="740" y2="470" stroke="#507DBC" stroke-width="1" stroke-dasharray="3,3" opacity="0"/>
    <line x1="610" y1="282" x2="610" y2="524" stroke="#507DBC" stroke-width="1" marker-end="url(#ah-blue)" stroke-dasharray="3,3"/>
    <text x="765" y="406" fill="#507DBC" font-size="9">⑫ spawn</text>

    <!-- YouTube/Whisper external box → just visual cue -->
    <path d="M 700 462 L 1140 780" stroke="#507DBC" stroke-width="0" fill="none" opacity="0"/>

  </g>

  <!-- =============== Layer header chips =============== -->
  <g id="layer-chips">
    <rect x="20" y="940" width="100" height="22" rx="11" fill="#0a0f17" stroke="#507DBC"/>
    <text x="70" y="956" fill="#E0E0E0" font-size="10" text-anchor="middle">Layer 1 · Client</text>

    <rect x="400" y="940" width="120" height="22" rx="11" fill="#0a0f17" stroke="#507DBC"/>
    <text x="460" y="956" fill="#E0E0E0" font-size="10" text-anchor="middle">Layer 2 · Express</text>

    <rect x="840" y="940" width="120" height="22" rx="11" fill="#0a0f17" stroke="#507DBC"/>
    <text x="900" y="956" fill="#E0E0E0" font-size="10" text-anchor="middle">Layer 3 · FastAPI</text>

    <rect x="1200" y="940" width="120" height="22" rx="11" fill="#0a0f17" stroke="#507DBC"/>
    <text x="1260" y="956" fill="#E0E0E0" font-size="10" text-anchor="middle">Layer 4 · Supabase</text>
  </g>

</svg>
